<?xml version="1.0" encoding="utf-8"?>
<!-- Generator: Adobe Illustrator 21.0.2, SVG Export Plug-In . SVG Version: 6.00 Build 0)  -->
<svg version="1.1" id="Layer_1" xmlns="http://www.w3.org/2000/svg" xmlns:xlink="http://www.w3.org/1999/xlink" x="0px" y="0px"
	 viewBox="0 0 32 55" style="enable-background:new 0 0 32 55;" xml:space="preserve">
<style type="text/css">
	.st0{fill:#545E73;}
	.st1{fill:#8697CB;}
	.st2{fill:#323A45;}
</style>
<g>
	<g>
		<g>
			<path class="st0" d="M32,55H0V0h32V55z"/>
			<rect y="5" class="st1" width="32" height="40"/>
			<circle class="st2" cx="16" cy="50" r="3"/>
			<path class="st2" d="M16,3.5h-4c-0.6,0-1-0.4-1-1s0.4-1,1-1h4c0.6,0,1,0.4,1,1S16.6,3.5,16,3.5z"/>
			<path class="st2" d="M20,3.5h-1c-0.6,0-1-0.4-1-1s0.4-1,1-1h1c0.6,0,1,0.4,1,1S20.6,3.5,20,3.5z"/>
		</g>
	</g>
</g>
</svg>
